<svg id="Group_6" data-name="Group 6" xmlns="http://www.w3.org/2000/svg" width="41.134" height="39.997" viewBox="0 0 41.134 39.997">
  <path id="Path_110" data-name="Path 110" d="M41.175,31.849a3.473,3.473,0,0,0-4.987-1.141l-2.7,1.513a48.774,48.774,0,0,0-4.476,2.815,2.038,2.038,0,0,0,.154-1.525c-.227-.73-.993-1.635-3.357-1.795-4.864-.328-5.782-1.231-5.871-1.332A6.25,6.25,0,0,0,18.283,29C11.51,25.213,5.022,30.9,4.749,31.141h0L.962,33.08a.977.977,0,0,0-.417,1.33l5.126,9.6a.977.977,0,0,0,1.379.369L10.872,42c.013-.008.023-.019.036-.027s.029-.012.043-.02a1.078,1.078,0,0,1,1.032,0c4.628,2.462,7.48,3.008,9.1,3.008a5.69,5.69,0,0,0,.952-.074c.943-.048,9.306-.7,17.951-8.746l.707-.708a2.992,2.992,0,0,0,.481-3.585ZM6.9,42.168l-4.166-7.8L4.92,33.249,9.056,40.83Zm32.385-8.1-.661.662c-8.392,7.807-16.656,8.2-16.736,8.2a.959.959,0,0,0-.149.016c-.825.156-3.338.2-8.843-2.726a3.048,3.048,0,0,0-2.05-.3l-4.2-7.8c1.6-1.171,6.169-3.946,10.682-1.425a4.36,4.36,0,0,1,1.138.967c.941,1.08,3.3,1.734,7.212,2a3.042,3.042,0,0,1,1.619.4c0,.059-.114.363-.657.793a9.419,9.419,0,0,1-8.5.975.978.978,0,0,0-.936,1.683,2.262,2.262,0,0,0,.489.242,7.516,7.516,0,0,0,1.971.455C26.7,38.828,30,36.7,30,36.7l4.452-2.777,2.739-1.537c.031-.018.061-.036.09-.057a1.517,1.517,0,0,1,2.184.457A1.12,1.12,0,0,1,39.289,34.073ZM25.555,20A4.094,4.094,0,1,0,21.462,15.9,4.1,4.1,0,0,0,25.555,20Zm0-6.233A2.139,2.139,0,1,1,23.416,15.9a2.142,2.142,0,0,1,2.139-2.139Z" transform="translate(-0.43 -4.964)" fill="#437ec7"/>
  <path id="Path_111" data-name="Path 111" d="M23.676,14.653l.71.178a8.924,8.924,0,0,0,.406,1.1l-.416.567a1.928,1.928,0,0,0,.079,2.387l.7.835a1.93,1.93,0,0,0,2.337.489l.657-.326A9.011,9.011,0,0,0,30.551,21l.164.684a1.926,1.926,0,0,0,1.87,1.485l1.09.006h.012a1.928,1.928,0,0,0,1.875-1.465l.177-.71a8.99,8.99,0,0,0,2.252-1.017l.621.332a1.928,1.928,0,0,0,2.351-.416l.727-.813a1.928,1.928,0,0,0,.152-2.383l-.417-.607a9,9,0,0,0,.476-1.26l.7-.171a1.931,1.931,0,0,0,1.476-1.878V11.695a1.928,1.928,0,0,0-1.474-1.878L41.9,9.644a9.115,9.115,0,0,0-.4-1.1l.425-.587a1.927,1.927,0,0,0-.093-2.386l-.706-.831a1.93,1.93,0,0,0-2.34-.476l-.65.326a9.025,9.025,0,0,0-2.4-1.109l-.172-.7A1.93,1.93,0,0,0,33.685,1.3H32.594a1.93,1.93,0,0,0-1.878,1.475l-.173.706a9.011,9.011,0,0,0-2.234,1.007l-.642-.339a1.927,1.927,0,0,0-2.349.429L24.6,5.4a1.928,1.928,0,0,0-.14,2.384l.412.594a9.116,9.116,0,0,0-.481,1.268l-.685.163a1.928,1.928,0,0,0-1.485,1.869l-.007,1.091a1.935,1.935,0,0,0,1.467,1.887Zm1.736-3.244a.979.979,0,0,0,.728-.737,7.154,7.154,0,0,1,.721-1.9.977.977,0,0,0-.053-1.031l-.747-1.047.7-.812,1.159.611a.977.977,0,0,0,1.029-.072,7.1,7.1,0,0,1,2.625-1.183.977.977,0,0,0,.736-.722l.29-1.257,1.07-.017.31,1.272a.976.976,0,0,0,.737.722,7.1,7.1,0,0,1,2.749,1.271A.979.979,0,0,0,38.49,6.6l1.146-.593.706.8-.769,1.06A.977.977,0,0,0,39.5,8.9a7.14,7.14,0,0,1,.651,1.769.977.977,0,0,0,.721.736l1.257.307.016,1.053-1.272.309a.976.976,0,0,0-.722.737,7.146,7.146,0,0,1-.714,1.888.977.977,0,0,0,.05,1.025l.747,1.059-.7.808-1.14-.609a.98.98,0,0,0-1.035.071,7.1,7.1,0,0,1-2.64,1.193.977.977,0,0,0-.735.717l-.3,1.257-1.07.01-.3-1.257a.977.977,0,0,0-.738-.727,7.093,7.093,0,0,1-2.752-1.273.979.979,0,0,0-1.023-.1l-1.151.589-.7-.808.764-1.042a.977.977,0,0,0,.076-1.033,7.107,7.107,0,0,1-.651-1.772.979.979,0,0,0-.717-.736l-1.257-.3-.01-1.07Z" transform="translate(-8.021 -1.303)" fill="#437ec7"/>
</svg>
