<svg id="Group_11" data-name="Group 11" xmlns="http://www.w3.org/2000/svg" width="34.176" height="39.997" viewBox="0 0 34.176 39.997">
  <path id="Path_112" data-name="Path 112" d="M60.949,33.984l-5.236-9c.906-.276,1.871-.52,2.272-1.213.668-1.154-.521-3.046-.209-4.283C58.1,18.218,60,17.116,60,15.823c0-1.26-1.964-2.733-2.286-4-.315-1.236.872-3.131.2-4.283S55.01,6.483,54.09,5.6c-.946-.91-.943-3.138-2.084-3.748s-3.007.625-4.279.332S45.347,0,44.033,0C42.7,0,40.58,2.148,40.248,2.225c-1.271.3-3.135-.939-4.28-.324s-1.133,2.84-2.077,3.751c-.918.886-3.151.8-3.82,1.949s.521,3.046.209,4.283S28,14.382,28,15.816c0,1.294,1.9,2.392,2.228,3.664.315,1.236-.871,3.131-.2,4.284a3.3,3.3,0,0,0,2.02,1.133c.1.029.279.137.155.317l-5.12,8.837a.73.73,0,0,0,.654,1.191l3.533.147a2.812,2.812,0,0,1,2.012,1.166l1.885,2.991a.73.73,0,0,0,1.359-.026S41.8,30.415,41.8,30.412c.106-.124.212-.1.263-.055a3.651,3.651,0,0,0,2.053.982,3.159,3.159,0,0,0,1.871-.976c.049-.042.169-.128.256.05l5.27,9.059a.73.73,0,0,0,1.359.023l1.88-2.995a2.812,2.812,0,0,1,2.01-1.169l3.532-.154a.73.73,0,0,0,.651-1.193ZM49.871,25.793a11.708,11.708,0,1,1-.234-20.412l.087.049.123.069a11.729,11.729,0,0,1,.024,20.294Z" transform="translate(-26.93)" fill="#437ec7"/>
  <path id="Path_113" data-name="Path 113" d="M108.153,54.854l-.049-.027a9.87,9.87,0,0,0-10.191,16.9q.169.108.342.208a9.872,9.872,0,0,0,9.9-17.084Zm1.178,7.7-1.649,1.608a2.771,2.771,0,0,0-.709,2.184l.389,2.27c.121.7-.3,1.007-.929.675L104.4,68.218a2.772,2.772,0,0,0-2.3,0L100.06,69.29c-.631.332-1.049.028-.929-.675l.389-2.27a2.771,2.771,0,0,0-.709-2.184l-1.649-1.608c-.511-.5-.351-.989.355-1.092l2.279-.331a2.772,2.772,0,0,0,1.858-1.35l1.019-2.065c.316-.64.832-.64,1.148,0l1.019,2.065a2.771,2.771,0,0,0,1.858,1.35l2.279.331C109.683,61.565,109.843,62.056,109.332,62.554Z" transform="translate(-86.105 -47.709)" fill="#437ec7"/>
</svg>
