<svg id="Group_12" data-name="Group 12" xmlns="http://www.w3.org/2000/svg" width="37.759" height="34.226" viewBox="0 0 37.759 34.226">
  <rect id="Rectangle_19" data-name="Rectangle 19" width="7.439" height="2.517" rx="1" transform="translate(13.016 19.232)" fill="#437ec7"/>
  <path id="Path_114" data-name="Path 114" d="M18.628,1.939A1.257,1.257,0,0,1,19.2,3.626l-.734,1.48,1.48.735a1.258,1.258,0,1,1-1.119,2.254L15.929,6.659A.938.938,0,0,1,15.506,5.4l1.436-2.895a1.257,1.257,0,0,1,1.686-.568ZM21.9,28.783H5.532A4.537,4.537,0,0,1,1,24.251V14.432A4.537,4.537,0,0,1,5.532,9.9H21.9a4.537,4.537,0,0,1,4.532,4.532v9.819A4.537,4.537,0,0,1,21.9,28.783ZM5.532,12.418a2.017,2.017,0,0,0-2.015,2.015v9.819a2.018,2.018,0,0,0,2.015,2.015H21.9a2.017,2.017,0,0,0,2.015-2.015V14.433A2.018,2.018,0,0,0,21.9,12.418Z" transform="translate(-1 -1.807)" fill="#437ec7"/>
  <path id="Path_115" data-name="Path 115" d="M2,12.69H24.909v2.517H2Z" transform="translate(-0.742 1.006)" fill="#437ec7"/>
  <path id="Path_116" data-name="Path 116" d="M20.947,35.722A16.372,16.372,0,0,1,6.6,27.237l2.205-1.213a13.93,13.93,0,0,0,2.427,3.2A13.84,13.84,0,1,0,16.675,6.19L15.9,3.8a16.363,16.363,0,1,1,5.049,31.929Z" transform="translate(0.449 -1.499)" fill="#437ec7"/>
</svg>
