<svg id="Group_13" data-name="Group 13" xmlns="http://www.w3.org/2000/svg" width="45.29" height="38.481" viewBox="0 0 45.29 38.481">
  <path id="Path_117" data-name="Path 117" d="M42.12,60.464l-1.173-4.691a.709.709,0,0,0,.561-.693v-.756a2.982,2.982,0,0,0-2.978-2.978H33.188v-1.56a1.467,1.467,0,0,0-1.466-1.466H21.789L27.825,45.9a.709.709,0,1,0-.527-1.317l-4.942,1.977a16.668,16.668,0,0,0,3.563-2.774,3.3,3.3,0,1,0-5.252-4.006,28.686,28.686,0,0,0-2.561,6.126,28.69,28.69,0,0,0-2.561-6.126,3.3,3.3,0,1,0-5.252,4.006,16.663,16.663,0,0,0,3.563,2.774L8.915,44.587A.709.709,0,0,0,8.388,45.9l6.036,2.415H4.491a1.467,1.467,0,0,0-1.466,1.466V62.643a.709.709,0,1,0,1.418,0V49.784a.047.047,0,0,1,.047-.047H31.722a.047.047,0,0,1,.047.047V62.644a.709.709,0,1,0,1.418,0v-.8h8.37a2.32,2.32,0,0,1,2.2,1.607H41.556a.709.709,0,0,0-.709.709v1.513a2.224,2.224,0,0,0,2.222,2.222h.8v3.12H42.018a4.49,4.49,0,0,0-8.489,0h-.341V65.669a.709.709,0,0,0-1.418,0v5.342H17.056a4.49,4.49,0,0,0-8.489,0H4.491a.047.047,0,0,1-.047-.047V69.4H7.517a.709.709,0,1,0,0-1.418H.709a.709.709,0,0,0,0,1.418H3.026v1.56a1.467,1.467,0,0,0,1.466,1.466H8.322c0,.016,0,.031,0,.047a4.491,4.491,0,1,0,8.982,0c0-.016,0-.031,0-.047H33.283c0,.016,0,.031,0,.047a4.491,4.491,0,1,0,8.982,0c0-.016,0-.031,0-.047h2.318a.709.709,0,0,0,.709-.709V64.156A3.74,3.74,0,0,0,42.12,60.464ZM15.294,45.791c-2.8-1.738-3.627-2.538-3.873-2.86a1.884,1.884,0,0,1,3-2.285,31.03,31.03,0,0,1,2.47,6.108q-.8-.472-1.594-.963Zm4.031.963A31.043,31.043,0,0,1,21.8,40.645a1.884,1.884,0,0,1,3,2.285c-.246.322-1.075,1.122-3.873,2.86q-.791.491-1.594.963Zm13.862,6.009H38.53a1.562,1.562,0,0,1,1.56,1.56v.047h-6.9V52.763Zm0,7.659V55.788h6.3l1.158,4.633h-7.46ZM12.812,75.55a3.073,3.073,0,1,1,3.073-3.073A3.076,3.076,0,0,1,12.812,75.55Zm24.962,0a3.073,3.073,0,1,1,3.073-3.073A3.076,3.076,0,0,1,37.774,75.55Zm6.1-9.077h-.8a.8.8,0,0,1-.8-.8v-.8h1.607v1.607Z" transform="translate(0 -38.486)" fill="#437ec7"/>
  <path id="Path_118" data-name="Path 118" d="M28.4,234.687a1.466,1.466,0,1,0,1.466,1.466,1.467,1.467,0,0,0-1.466-1.466Zm24.962,0a1.466,1.466,0,1,0,1.466,1.466A1.467,1.467,0,0,0,53.363,234.687Zm-8.321-3.026H34.452a.709.709,0,0,0,0,1.418h10.59a.709.709,0,0,0,0-1.418Zm-18.154-3.026H17.811a.709.709,0,0,0,0,1.418h9.077a.709.709,0,1,0,0-1.418Zm0-10.59H23.862a.709.709,0,0,0-.709.709v6.051a.709.709,0,1,0,1.418,0V222.49h1.56a.709.709,0,1,0,0-1.418h-1.56v-1.607h2.317a.709.709,0,0,0,0-1.418Zm5.581,4.776a2.6,2.6,0,0,0-1.42-4.776H29.157a.709.709,0,0,0-.709.709v6.051a.709.709,0,1,0,1.418,0v-1.56h1.181l1.3,1.953a.709.709,0,0,0,1.18-.787Zm-1.42-.994H29.867v-2.364h1.182a1.182,1.182,0,0,1,0,2.364Zm7.186,2.269H35.918v-1.61l.047,0h1.513a.709.709,0,0,0,0-1.418H35.965l-.047,0v-1.61h2.317a.709.709,0,0,0,0-1.418H35.209a.709.709,0,0,0-.709.709v6.051a.709.709,0,0,0,.709.709h3.026a.709.709,0,1,0,0-1.418Zm5.295,0H41.213V222.49h.8a.709.709,0,0,0,0-1.418h-.8v-1.607h2.317a.709.709,0,1,0,0-1.418H40.5a.709.709,0,0,0-.709.709v6.051a.709.709,0,0,0,.709.709h3.026a.709.709,0,1,0,0-1.418Z" transform="translate(-15.589 -202.163)" fill="#437ec7"/>
</svg>
